{"title":"Angry.Birds.Toons.Gate.Crasher.WEB-DL.360p-AwesomeID","uid":8824976,"size":25436305,"categoryP":"video","categoryS":"tv_shows","magnet":"?xt=urn:btih:aed301efaa7c9b13a171078647d1d73ee3273bc7&amp;dn=Angry.Birds.Toons.Gate.Crasher.WEB-DL.360p-AwesomeID&amp;tr=udp%3A%2F%2Ftracker.openbittorrent.com%3A80&amp;tr=udp%3A%2F%2Fopen.demonii.com%3A1337&amp;tr=udp%3A%2F%2Ftracker.coppersurfer.tk%3A6969&amp;tr=udp%3A%2F%2Fexodus.desync.com%3A6969","seeders":0,"leechers":0,"uploader":"orangebirds","files":-1,"time":1376822008,"description":"Angry Birds Toons Season 1 Episode 22 - Gate Crasher\n\nGeneral\nComplete name                            : Gate Crasher.mp4\nFormat                                   : MPEG-4\nFormat profile                           : Base Media\nCodec ID                                 : isom\nFile size                                : 24.3 MiB\nDuration                                 : 2mn 45s\nOverall bit rate                         : 1 233 Kbps\nEncoded date                             : UTC 2013-07-23 07:59:32\nTagged date                              : UTC 2013-07-23 07:59:32\nWriting application                      : Lavf53.24.2\n\nVideo\nID                                       : 1\nFormat                                   : AVC\nFormat/Info                              : Advanced Video Codec\nFormat profile                           : &lt;a class=&quot;__cf_email__&quot; href=&quot;/cdn-cgi/l/email-protection&quot; data-cfemail=&quot;7d3f1c0e18111413183d314e534d&quot;&gt;[email&amp;#160;protected]&lt;/a&gt;&lt;script cf-hash='f9e31' type=&quot;text/javascript&quot;&gt;\n/* &lt;![CDATA[ */!function(){try{var t=&quot;currentScript&quot;in document?document.currentScript:function(){for(var t=document.getElementsByTagName(&quot;script&quot;),e=t.length;e--;)if(t[e].getAttribute(&quot;cf-hash&quot;))return t[e]}();if(t&amp;&amp;t.previousSibling){var e,r,n,i,c=t.previousSibling,a=c.getAttribute(&quot;data-cfemail&quot;);if(a){for(e=&quot;&quot;,r=parseInt(a.substr(0,2),16),n=2;a.length-n;n+=2)i=parseInt(a.substr(n,2),16)^r,e+=String.fromCharCode(i);e=document.createTextNode(e),c.parentNode.replaceChild(e,c)}}}catch(u){}}();/* ]]&gt; */&lt;/script&gt;\nFormat settings, CABAC                   : No\nFormat settings, ReFrames                : 3 frames\nCodec ID                                 : avc1\nCodec ID/Info                            : Advanced Video Coding\nDuration                                 : 2mn 45s\nBit rate                                 : 1 100 Kbps\nWidth                                    : 640 pixels\nHeight                                   : 360 pixels\nDisplay aspect ratio                     : 16:9\nFrame rate mode                          : Constant\nFrame rate                               : 24.000 fps\nColor space                              : YUV\nChroma subsampling                       : 4:2:0\nBit depth                                : 8 bits\nScan type                                : Progressive\nBits/(Pixel*Frame)                       : 0.199\nStream size                              : 21.6 MiB (89%)\nWriting library                          : x264 core 118 r2085 8a62835\nEncoding settings                        : cabac=0 // deblock=1:0:0 / analyse=0x1:0x111 / me=hex / subme=5 / psy=1 / psy_rd=1.00:0.00 // me_range=16 / chroma_me=1 / trellis=1 / 8x8dct=0 / cqm=0 / deadzone=21,11 / fast_pskip=1 / chroma_qp_offset=0 / threads=36 / sliced_threads=0 / nr=0 / decimate=1 / interlaced=0 / bluray_compat=0 / constrained_intra=0 / bframes=0 / weightp=0 / keyint=24 / keyint_min=13 / scenecut=40 / intra_refresh=0 / rc_lookahead=24 / rc=2pass / mbtree=1 / bitrate=1100 / ratetol=1.0 / qcomp=0.60 / qpmin=10 / qpmax=51 / qpstep=4 / cplxblur=20.0 / qblur=0.5 / ip_ratio=1.40 / aq=1:1.00\nLanguage                                 : English\nEncoded date                             : UTC 2013-07-23 07:59:32\nTagged date                              : UTC 2013-07-23 07:59:32\n\nAudio\nID                                       : 2\nFormat                                   : AAC\nFormat/Info                              : Advanced Audio Codec\nFormat profile                           : LC\nCodec ID                                 : 40\nDuration                                 : 2mn 45s\nBit rate mode                            : Constant\nBit rate                                 : 128 Kbps\nChannel(s)                               : 2 channels\nChannel positions                        : Front: L R\nSampling rate                            : 44.1 KHz\nCompression mode                         : Lossy\nDelay relative to video                  : 42ms\nStream size                              : 2.52 MiB (10%)\nLanguage                                 : English\nEncoded date                             : UTC 2013-07-23 07:59:32\nTagged date                              : UTC 2013-07-23 07:59:32\n\n","torrent":{"xt":"urn:btih:aed301efaa7c9b13a171078647d1d73ee3273bc7","amp;dn":"Angry.Birds.Toons.Gate.Crasher.WEB-DL.360p-AwesomeID","amp;tr":["udp%3A%2F%2Ftracker.openbittorrent.com%3A80","udp%3A%2F%2Fopen.demonii.com%3A1337","udp%3A%2F%2Ftracker.coppersurfer.tk%3A6969","udp%3A%2F%2Fexodus.desync.com%3A6969"],"infoHash":"aed301efaa7c9b13a171078647d1d73ee3273bc7","infoHashBuffer":{"type":"Buffer","data":[174,211,1,239,170,124,155,19,161,113,7,134,71,209,215,62,227,39,59,199]},"announce":[],"urlList":[]}}